<?xml version="1.0" standalone="no"?>
<!DOCTYPE svg PUBLIC "-//W3C//DTD SVG 20010904//EN"
 "http://www.w3.org/TR/2001/REC-SVG-20010904/DTD/svg10.dtd">
<svg version="1.0" xmlns="http://www.w3.org/2000/svg"
 width="128.000000pt" height="128.000000pt" viewBox="0 0 128.000000 128.000000"
 preserveAspectRatio="xMidYMid meet">

<g transform="translate(0.000000,128.000000) scale(0.100000,-0.100000)"
fill="#000000" stroke="none">
<path d="M910 1019 c-92 -42 -161 -51 -375 -47 -183 3 -204 6 -250 27 -66 30
-103 30 -127 1 -15 -18 -18 -40 -18 -125 0 -94 -2 -106 -24 -132 -43 -52 -57
-92 -63 -182 -7 -104 7 -144 71 -196 49 -40 162 -97 231 -116 64 -18 429 -18
495 -1 161 43 262 103 322 192 83 123 71 253 -34 368 -51 55 -72 105 -64 152
8 52 -10 72 -70 76 -34 3 -63 -2 -94 -17z m97 -60 c8 -8 7 -20 -3 -45 -8 -18
-14 -41 -14 -50 0 -9 32 -48 70 -87 57 -57 74 -82 86 -124 14 -48 14 -58 -1
-101 -57 -169 -261 -267 -555 -266 -135 0 -191 12 -305 64 -126 58 -175 113
-175 196 0 53 12 82 68 159 53 73 113 120 212 165 73 33 80 34 225 38 129 4
158 1 207 -15 64 -22 79 -18 84 23 1 16 11 34 20 41 22 16 66 17 81 2z"/>
<path d="M868 749 c-25 -14 -24 -75 1 -89 27 -14 66 -13 78 3 17 20 23 59 12
79 -11 20 -62 24 -91 7z"/>
<path d="M375 743 c-41 -6 -55 -20 -55 -53 0 -30 34 -60 68 -60 27 0 62 37 62
65 0 23 -24 57 -38 54 -4 -1 -20 -4 -37 -6z"/>
<path d="M570 645 c-10 -12 -10 -19 -2 -27 7 -7 12 -20 12 -30 0 -25 -46 -24
-62 2 -16 25 -30 25 -52 1 -23 -25 -11 -48 37 -72 32 -17 45 -19 64 -10 13 6
66 11 117 11 110 0 132 10 121 58 -8 38 -10 38 -53 12 -51 -31 -97 -23 -57 10
8 7 15 23 15 36 0 23 -3 24 -64 24 -45 0 -67 -4 -76 -15z"/>
</g>
</svg>
